<svg width="139" height="65" viewBox="0 0 139 65" fill="none" xmlns="http://www.w3.org/2000/svg">
<path d="M10.8814 15.1048C12.4937 14.4194 28.0422 5.88089 38.2318 2.19373C48.4214 -1.49344 67.8454 2.50964 79.5847 3.31054C91.2325 4.15629 98.841 3.97078 109.969 7.92533C121.007 11.8816 132.464 15.2546 136.551 20.7254C140.637 26.1962 137.715 35.5413 133.59 42.7236C129.556 49.8611 125.552 53.3794 115.681 57.7919C105.719 62.2492 90.3754 63.8003 75.9863 64.1707C61.5056 64.5859 47.9816 63.7772 36.6029 61.2047C25.1348 58.634 15.8143 54.2565 9.30193 49.0918C2.79178 43.8841 -0.818657 37.8444 1.08094 32.2554C2.98279 26.6232 5.49098 17.3963 10.8814 15.1048Z" fill="#ADD8ED"/>
</svg>
