<svg width="27" height="25" viewBox="0 0 27 25" fill="none" xmlns="http://www.w3.org/2000/svg">
<path d="M24.4063 8.49689C23.1715 7.00257 22.5725 5.45392 20.8987 3.70968C19.2249 1.96545 16.2016 0.811418 13.9046 0.683944C11.6218 0.576511 10.1845 0.23124 7.77392 1.30154C5.38022 2.37573 2.78413 2.63806 1.60546 4.52908C0.426778 6.4201 0.632202 9.16696 0.894398 11.994C1.1424 14.801 1.4837 17.6798 3.04369 19.6828C4.61788 21.7059 7.43038 22.8409 10.1471 23.5011C12.878 24.1814 15.5158 24.3708 17.8734 23.8248C20.2479 23.2827 22.3448 21.9891 23.9637 20.3002C25.5853 18.5952 26.7147 16.4749 26.7606 14.3225C26.8091 12.154 25.4298 10.6612 24.4063 8.49689Z" fill="#C57B57"/>
</svg>
